 <svg  version="1.0" xmlns="http://www.w3.org/2000/svg"  width="300.000000pt" height="300.000000pt" viewBox="0 0 300.000000 300.000000"  preserveAspectRatio="xMidYMid meet">  <g transform="translate(0.000000,300.000000) scale(0.050000,-0.050000)" fill="#000000" stroke="none"> <path d="M2083 4528 c-14 -16 -42 -25 -61 -19 -42 14 -182 -40 -182 -69 0 -11 -12 -20 -27 -20 -15 0 -43 -18 -62 -39 -20 -22 -41 -39 -48 -38 -41 5 -63 -7 -63 -33 0 -17 -24 -40 -53 -51 -29 -11 -47 -25 -41 -32 7 -7 -8 -30 -32 -51 -24 -21 -33 -33 -19 -26 15 7 25 -1 25 -21 0 -18 -17 -37 -38 -43 -129 -33 -204 -786 -79 -786 10 0 15 -7 11 -15 -5 -8 0 -37 10 -65 19 -47 21 -48 36 -10 14 36 17 37 28 5 7 -19 18 -51 25 -70 7 -19 12 -42 10 -50 -2 -8 8 -13 22 -10 14 3 25 -15 26 -39 0 -64 73 -127 117 -102 28 16 37 11 46 -24 6 -24 32 -51 58 -61 52 -19 33 -139 -22 -139 -15 0 -30 -7 -33 -16 -4 -9 -41 -36 -82 -62 -41 -25 -70 -53 -65 -63 10 -15 -60 -66 -93 -68 -32 -2 -314 -227 -302 -241 8 -9 6 -11 -5 -5 -12 6 -57 -11 -100 -38 -44 -28 -60 -44 -35 -37 35 10 42 6 33 -19 -7 -17 -27 -32 -45 -33 -21 -1 -24 -5 -8 -11 38 -16 30 -53 -10 -43 -47 11 -109 -52 -79 -82 16 -16 15 -22 -2 -22 -13 0 -24 -13 -24 -29 0 -19 -16 -26 -49 -20 -55 11 -87 -23 -53 -57 16 -16 22 -14 22 7 1 25 3 25 19 0 12 -19 10 -40 -5 -59 -19 -23 -19 -26 1 -15 16 10 25 4 25 -16 0 -17 10 -31 21 -31 12 0 16 9 9 20 -7 11 1 20 17 20 16 0 33 8 36 17 6 15 210 175 978 766 94 72 190 142 215 155 70 37 53 65 -111 182 -308 220 -416 345 -476 551 -91 314 107 690 427 810 105 39 1023 60 1089 25 17 -9 -16 -63 -142 -236 -115 -158 -88 -149 -459 -150 -407 0 -472 -26 -522 -209 -43 -159 5 -234 277 -441 58 -44 139 -107 181 -140 41 -33 162 -127 268 -209 106 -81 190 -157 187 -167 -4 -11 -443 -238 -976 -506 -533 -268 -960 -488 -949 -489 11 0 -7 -14 -40 -30 -33 -16 -45 -25 -26 -20 19 5 62 0 96 -12 45 -16 68 -15 89 3 16 13 63 20 105 17 54 -5 74 0 71 19 -4 19 12 23 61 13 50 -9 90 1 163 39 52 28 104 47 113 41 10 -6 12 3 6 20 -9 24 -4 28 23 18 27 -11 32 -7 18 15 -14 23 -11 24 15 2 28 -22 35 -20 46 15 7 23 21 37 31 31 10 -7 36 7 59 30 23 23 51 36 63 28 11 -7 47 7 79 30 96 71 164 91 137 40 -25 -47 74 5 107 56 8 13 30 19 48 12 22 -9 28 -5 18 11 -9 14 -1 23 22 23 30 1 31 4 6 20 -24 15 -16 22 35 32 35 7 73 24 84 37 11 13 55 21 100 17 78 -6 81 -4 81 53 0 51 10 62 75 80 99 27 130 26 114 -4 -7 -14 6 -2 29 25 23 28 42 41 42 30 1 -11 15 5 31 35 17 30 43 55 57 55 33 0 55 49 40 88 -18 47 52 25 94 -30 20 -26 37 -62 38 -78 0 -17 19 -42 42 -56 38 -25 40 -23 28 20 -14 45 -13 45 16 6 17 -22 26 -47 20 -57 -6 -9 8 -11 31 -4 31 10 56 -1 94 -42 28 -30 45 -40 38 -21 -11 28 -6 31 24 18 99 -42 187 -93 187 -109 0 -9 9 -12 20 -5 11 7 20 3 20 -9 0 -11 10 -21 22 -21 12 0 46 -18 77 -39 32 -23 72 -34 96 -28 31 8 49 -3 68 -40 15 -28 36 -52 47 -54 92 -17 218 -64 246 -92 15 -15 40 -27 55 -27 16 0 29 -9 29 -20 0 -11 14 -20 31 -20 18 0 45 -14 62 -30 17 -17 38 -25 48 -19 10 6 14 -1 8 -15 -15 -42 188 -132 213 -95 15 23 18 20 14 -11 -4 -25 5 -40 24 -40 17 0 28 11 25 25 -3 14 4 25 15 25 11 0 20 -13 20 -28 0 -18 14 -25 40 -18 22 6 34 19 27 30 -6 11 8 9 33 -4 25 -13 74 -29 108 -34 34 -5 77 -29 96 -52 27 -35 39 -39 59 -19 88 88 51 111 -1157 708 -576 285 -784 396 -785 422 0 19 7 35 16 35 10 0 95 61 188 135 94 74 255 198 357 275 315 236 358 285 358 412 0 257 -72 293 -612 305 -230 5 -420 10 -423 11 -8 3 262 351 284 367 51 35 564 16 703 -27 460 -142 607 -791 255 -1120 -42 -39 -155 -131 -251 -205 -194 -149 -214 -171 -174 -194 26 -14 402 -304 905 -696 313 -243 393 -293 393 -244 0 23 13 41 29 41 16 0 34 9 41 20 7 11 -1 15 -18 8 -22 -9 -28 -1 -22 30 4 23 -1 46 -11 53 -11 6 -19 -5 -20 -25 0 -22 -17 -4 -42 44 -43 82 -147 193 -165 176 -16 -17 -115 93 -102 114 7 11 -7 20 -30 20 -23 0 -37 8 -31 19 6 10 3 24 -9 31 -11 7 -20 2 -20 -10 0 -13 -13 -10 -31 9 -18 17 -42 31 -55 31 -14 0 -12 9 6 20 24 16 24 19 2 20 -15 0 -40 16 -56 35 -16 19 -22 22 -14 7 23 -46 -55 15 -120 92 -35 42 -66 60 -88 53 -22 -7 -26 -5 -11 6 29 21 -77 147 -123 147 -34 0 -41 51 -9 71 12 7 17 26 11 42 -7 16 -3 24 8 17 11 -7 26 2 32 19 7 17 22 31 33 31 24 0 115 94 115 120 0 9 18 23 40 30 22 7 40 29 40 49 0 19 18 58 40 86 22 28 43 68 48 88 17 80 37 127 54 127 10 0 18 45 18 100 0 55 -7 100 -16 100 -18 0 -13 130 6 161 7 10 -1 25 -19 31 -17 7 -26 20 -20 30 6 10 -2 37 -19 61 -28 40 -27 46 4 72 31 25 31 27 1 18 -30 -9 -88 78 -78 117 4 16 -52 70 -73 70 -29 0 -85 77 -62 85 33 11 -116 115 -173 119 -28 3 -51 17 -51 31 0 33 -85 67 -102 40 -8 -12 -29 -11 -56 4 -24 13 -38 32 -31 42 6 10 -3 19 -21 19 -18 0 -27 -9 -20 -20 14 -23 -11 -26 -58 -8 -18 7 -27 20 -21 30 6 10 -3 18 -20 18 -17 0 -31 -8 -31 -17 0 -10 -81 -14 -181 -9 -111 5 -210 -1 -254 -16 -54 -18 -75 -18 -81 -1 -4 13 -40 22 -81 21 l-73 -2 55 -22 c69 -27 70 -49 1 -75 -55 -22 -153 4 -180 47 -6 11 -4 15 6 10 10 -6 36 -4 58 5 36 15 35 16 -10 14 -27 -1 -186 5 -352 14 -215 11 -307 9 -317 -7 -9 -15 -30 -13 -71 8 -69 36 -108 39 -88 7 10 -16 5 -18 -14 -6 -48 30 -107 29 -135 -3z m950 -778 c6 -16 18 -26 26 -21 8 5 34 -8 57 -29 37 -35 45 -36 71 -10 40 40 153 40 153 0 0 -37 19 -37 67 -1 31 24 50 24 125 1 48 -14 88 -19 88 -10 0 8 16 21 35 28 19 6 45 17 58 23 13 6 37 -16 53 -49 30 -60 30 -60 -91 -186 -67 -69 -114 -112 -105 -96 11 19 -1 15 -31 -10 -84 -70 -97 -85 -87 -95 5 -6 -13 -16 -42 -23 -28 -7 -47 -21 -41 -30 10 -17 -44 -51 -71 -46 -7 1 -69 -46 -137 -105 -107 -93 -221 -159 -191 -111 9 14 -37 44 -76 48 -8 1 -23 14 -32 28 -8 14 -25 23 -36 20 -28 -8 -170 121 -157 143 6 9 -7 21 -29 27 -27 7 -36 3 -27 -13 8 -13 -6 -6 -30 16 -24 21 -41 48 -37 60 10 27 -147 133 -175 117 -11 -7 -14 -5 -6 4 22 25 -25 70 -73 70 -34 0 -48 18 -65 79 -28 104 -17 116 123 138 118 18 221 -2 198 -40 -19 -31 26 -17 79 24 43 34 63 38 121 22 51 -14 79 -12 108 8 21 15 44 23 50 16 6 -6 27 -1 47 11 50 29 66 27 80 -8z"/> </g> </svg> 